<?xml version="1.0" encoding="utf-8"?>
<!-- Svg Vector Icons : http://www.onlinewebfonts.com/icon -->
<!DOCTYPE svg PUBLIC "-//W3C//DTD SVG 1.1//EN" "http://www.w3.org/Graphics/SVG/1.1/DTD/svg11.dtd">
<svg version="1.1" xmlns="http://www.w3.org/2000/svg" xmlns:xlink="http://www.w3.org/1999/xlink" x="0px" y="0px" viewBox="0 0 1000 1000" enable-background="new 0 0 1000 1000" xml:space="preserve">
<g><g transform="translate(0.000000,512.000000) scale(0.100000,-0.100000)"><path fill="#844FBA" d="M1288.3,4997.6c-159.1-57.5-279.9-184-320.1-339.3c-13.4-46-17.3-1673.4-15.3-4581.1l5.7-4512.1l40.2-76.7c53.7-97.8,130.3-174.4,228.1-228.1l76.7-40.3h3699.4h3699.4l76.7,40.3c97.8,53.7,174.4,130.4,228.1,228.1l40.3,76.7V117.4v4552.4l-40.3,76.7c-53.7,97.8-130.4,174.4-228.1,228.1l-76.7,40.2l-3670.7,3.8C1984.1,5022.5,1349.7,5018.7,1288.3,4997.6z M8041.2,1133.3v-2875.2H5003.1H1965v2875.2v2875.2h3038.1h3038.1V1133.3z M2846.7-2454.9c162.9-47.9,306.7-176.3,404.4-360.4c40.3-74.8,46-113.1,46-277.9c0-170.6-5.7-203.2-53.7-299c-63.3-132.3-189.8-253-335.4-320.1c-92-44.1-136.1-51.8-272.2-51.8c-136.1,0-180.2,7.7-270.3,49.8c-151.4,70.9-254.9,172.5-327.8,320.1c-57.5,115-63.3,143.8-63.3,300.9c0,149.5,7.7,187.9,51.8,277.9C2179.7-2502.8,2513.2-2357.2,2846.7-2454.9z M6527-3093.2v-507.9h-172.5h-172.5v507.9v507.9h172.5H6527V-3093.2z M7025.3-3093.2v-507.9h-162.9h-162.9v507.9v507.9h162.9h162.9V-3093.2z M7542.9-3093.2v-507.9h-172.5h-172.5v507.9v507.9h172.5h172.5V-3093.2z M8041.2-3093.2v-507.9h-162.9h-162.9v507.9v507.9h162.9h162.9V-3093.2z"/><path fill="#844FBA" d="M2294.7,3161.3l5.7-504.1h2702.7h2702.7l5.8,504.1l3.8,502.2H5003.1H2290.8L2294.7,3161.3z"/><path fill="#844FBA" d="M2304.3,2308.3c-7.7-5.8-13.4-235.8-13.4-508v-494.5h2712.3h2712.3l-3.8,504.1l-5.8,502.2l-2695,5.8C3529.1,2319.8,2310,2316,2304.3,2308.3z"/><path fill="#844FBA" d="M2294.7,458.6l5.7-504.1h2702.7h2702.7l5.8,504.1l3.8,502.2H5003.1H2290.8L2294.7,458.6z"/><path fill="#844FBA" d="M2304.3-394.4c-7.7-5.8-13.4-235.8-13.4-508v-494.5h2712.3h2712.3l-3.8,504.1l-5.8,502.2l-2695,5.7C3529.1-382.9,2310-386.7,2304.3-394.4z"/></g></g>
</svg>